<?xml version="1.0"?>
<svg xmlns="http://www.w3.org/2000/svg" xmlns:xlink="http://www.w3.org/1999/xlink" xmlns:svgjs="http://svgjs.com/svgjs" version="1.1" width="512" height="512" x="0" y="0" viewBox="0 0 24 24" style="enable-background:new 0 0 512 512" xml:space="preserve" class=""><g><path xmlns="http://www.w3.org/2000/svg" d="m12 1c5.738 0 10.444 4.395 10.95 10h-8.95v-3c0-.404-.244-.77-.617-.924-.374-.155-.804-.069-1.09.217l-4 4c-.391.391-.391 1.023 0 1.414l4 4c.286.286.716.372 1.09.217.373-.155.617-.52.617-.924v-3h8.95c-.507 5.606-5.213 10-10.95 10-6.075 0-11-4.925-11-11s4.925-11 11-11z" fill="#ffc107" data-original="#ffc107" style="" class=""/><path xmlns="http://www.w3.org/2000/svg" d="m8 12h-7c0 6.075 4.925 11 11 11 5.737 0 10.443-4.394 10.95-10h-8.95v3c0 .404-.244.769-.617.924-.124.051-.254.076-.383.076-.26 0-.516-.102-.707-.293l-4-4c-.195-.195-.293-.451-.293-.707z" fill="#fdc10c" data-original="#dea806" style="" class=""/></g></svg>
