<svg xmlns="http://www.w3.org/2000/svg" width="263.151" height="364.12" viewBox="0 0 263.151 364.12"><defs><style>.cls-1{fill:#8f5339;stroke-linecap:round;stroke-linejoin:round}.cls-2,.cls-3{stroke:none}.cls-3{fill:#18100a}</style></defs><g id="CardFlip" class="cls-1"><path d="M 252.8215942382813 360.4217834472656 L 8.231706619262695 360.4217834472656 C 7.597221851348877 360.3149108886719 6.75752067565918 360.0160827636719 6.463561058044434 359.7251281738281 C 6.152682304382324 359.4175109863281 5.808243751525879 358.5265808105469 5.662063598632813 357.8338012695313 L 3.588196516036987 8.719013214111328 C 3.598990917205811 8.508645057678223 3.659202337265015 7.57905101776123 3.918061017990112 6.523575782775879 C 4.341860771179199 4.795525550842285 4.922660827636719 4.207075595855713 5.090560913085938 4.067875862121582 C 5.53731107711792 3.697475671768188 6.706010818481445 3.3017258644104 8.646210670471191 3.3017258644104 C 9.463245391845703 3.3017258644104 10.06795215606689 3.375532150268555 10.14135932922363 3.384907960891724 L 10.39401054382324 3.422675848007202 L 10.6292610168457 3.419025897979736 L 256.3424377441406 3.419025897979736 C 256.4363098144531 3.421941995620728 257.0342102050781 3.445990324020386 257.7274475097656 3.595475673675537 C 258.5663757324219 3.776425838470459 258.99169921875 4.022975921630859 259.099365234375 4.12807559967041 C 259.4068908691406 4.428162574768066 259.7276000976563 5.670202732086182 259.7384948730469 6.598104476928711 L 259.7388000488281 6.572825908660889 L 259.738525390625 6.599225521087646 C 259.738525390625 6.599282741546631 259.738525390625 6.59934139251709 259.738525390625 6.599398612976074 L 259.7384948730469 6.600064277648926 L 255.8166656494141 357.3463745117188 C 255.7176818847656 358.1693420410156 255.3551177978516 359.329833984375 254.9999542236328 359.6863403320313 C 254.6646423339844 360.0228271484375 253.5817565917969 360.3474426269531 252.8215942382813 360.4217834472656 Z" class="cls-2" transform="translate(-0.088 0.198)"/><path d="M 7.48175048828125 6.78533935546875 C 7.2896728515625 7.318939208984375 7.1141357421875 8.167083740234375 7.087646484375 8.616485595703125 L 9.262191772460938 356.9211120605469 L 252.3223114013672 356.7975158691406 L 256.1028137207031 6.9189453125 L 9.696792602539063 6.856536865234375 C 9.581588745117188 6.842132568359375 9.178115844726563 6.8017578125 8.6461181640625 6.8017578125 C 8.29449462890625 6.8017578125 7.997146606445313 6.819793701171875 7.784469604492188 6.819793701171875 C 7.643218994140625 6.819793701171875 7.539306640625 6.81182861328125 7.48175048828125 6.78533935546875 M 8.646102905273438 -0.198272705078125 C 9.804534912109375 -0.198272705078125 10.62921142578125 -0.08099365234375 10.62921142578125 -0.08099365234375 L 256.3795776367188 -0.08099365234375 C 256.3795776367188 -0.08099365234375 259.8290100097656 -0.050201416015625 261.5437316894531 1.623077392578125 C 263.2584838867188 3.296295166015625 263.2385864257813 6.611968994140625 263.2385864257813 6.611968994140625 L 259.3146362304688 357.5469665527344 C 259.3146362304688 357.5469665527344 259.0672607421875 360.5628051757813 257.4794311523438 362.1565551757813 C 255.8915863037109 363.7502136230469 252.96337890625 363.9217529296875 252.96337890625 363.9217529296875 L 7.989105224609375 363.9217529296875 C 7.989105224609375 363.9217529296875 5.45794677734375 363.6540832519531 4.00164794921875 362.2129211425781 C 2.545318603515625 360.7718200683594 2.163848876953125 358.1571655273438 2.163848876953125 358.1571655273438 L 0.087738037109375 8.6580810546875 C 0.087738037109375 8.6580810546875 0.22137451171875 3.558135986328125 2.856781005859375 1.373321533203125 C 4.43603515625 0.06414794921875 6.9139404296875 -0.198272705078125 8.646102905273438 -0.198272705078125 Z" class="cls-3" transform="translate(-0.088 0.198)"/></g></svg>