<svg xmlns="http://www.w3.org/2000/svg" xmlns:xlink="http://www.w3.org/1999/xlink" width="263.151" height="364.12" viewBox="0 0 263.151 364.12">
  <defs>
    <style>
      .cls-1, .cls-4, .cls-5, .cls-7 {
        fill: none;
      }

      .cls-2 {
        fill: #8f5339;
      }

      .cls-2, .cls-4, .cls-5, .cls-6 {
        stroke-linecap: round;
      }

      .cls-2, .cls-6 {
        stroke-linejoin: round;
      }

      .cls-3 {
        fill: #fff;
      }

      .cls-4, .cls-5, .cls-7 {
        stroke: #daa261;
        opacity: 0.57;
      }

      .cls-4 {
        stroke-width: 6px;
      }

      .cls-5 {
        stroke-width: 4px;
      }

      .cls-6 {
        fill: #f2edd8;
      }

      .cls-7 {
        stroke-linecap: square;
        stroke-width: 10px;
      }

      .cls-8 {
        clip-path: url(#clip-path);
      }

      .cls-9 {
        fill: #ffc400;
      }

      .cls-10 {
        fill: #fa0;
      }

      .cls-11, .cls-12 {
        stroke: none;
      }

      .cls-12 {
        fill: #18100a;
      }
    </style>
    <clipPath id="clip-path">
      <rect class="cls-1" width="121.256" height="22.301"/>
    </clipPath>
  </defs>
  <g id="cardfliped" transform="translate(-840 -103.277)">
    <g id="Tracé_4" data-name="Tracé 4" class="cls-2" transform="translate(839.912 103.475)">
      <path class="cls-11" d="M 252.8215942382813 360.4217834472656 L 8.231706619262695 360.4217834472656 C 7.597221851348877 360.3149108886719 6.75752067565918 360.0160827636719 6.463561058044434 359.7251281738281 C 6.152682304382324 359.4175109863281 5.808243751525879 358.5265808105469 5.662063598632813 357.8338012695313 L 3.588196516036987 8.719013214111328 C 3.598990917205811 8.508645057678223 3.659202337265015 7.57905101776123 3.918061017990112 6.523575782775879 C 4.341860771179199 4.795525550842285 4.922660827636719 4.207075595855713 5.090560913085938 4.067875862121582 C 5.53731107711792 3.697475671768188 6.706010818481445 3.3017258644104 8.646210670471191 3.3017258644104 C 9.463245391845703 3.3017258644104 10.06795215606689 3.375532150268555 10.14135932922363 3.384907960891724 L 10.39401054382324 3.422675848007202 L 10.6292610168457 3.419025897979736 L 256.3424377441406 3.419025897979736 C 256.4363098144531 3.421941995620728 257.0342102050781 3.445990324020386 257.7274475097656 3.595475673675537 C 258.5663757324219 3.776425838470459 258.99169921875 4.022975921630859 259.099365234375 4.12807559967041 C 259.4068908691406 4.428162574768066 259.7276000976563 5.670202732086182 259.7384948730469 6.598104476928711 L 259.7388000488281 6.572825908660889 L 259.738525390625 6.599225521087646 C 259.738525390625 6.599282741546631 259.738525390625 6.59934139251709 259.738525390625 6.599398612976074 L 259.7384948730469 6.600064277648926 L 255.8166656494141 357.3463745117188 C 255.7176818847656 358.1693420410156 255.3551177978516 359.329833984375 254.9999542236328 359.6863403320313 C 254.6646423339844 360.0228271484375 253.5817565917969 360.3474426269531 252.8215942382813 360.4217834472656 Z"/>
      <path class="cls-12" d="M 7.48175048828125 6.78533935546875 C 7.2896728515625 7.318939208984375 7.1141357421875 8.167083740234375 7.087646484375 8.616485595703125 L 9.262191772460938 356.9211120605469 L 252.3223114013672 356.7975158691406 L 256.1028137207031 6.9189453125 L 9.696792602539063 6.856536865234375 C 9.581588745117188 6.842132568359375 9.178115844726563 6.8017578125 8.6461181640625 6.8017578125 C 8.29449462890625 6.8017578125 7.997146606445313 6.819793701171875 7.784469604492188 6.819793701171875 C 7.643218994140625 6.819793701171875 7.539306640625 6.81182861328125 7.48175048828125 6.78533935546875 M 8.646102905273438 -0.198272705078125 C 9.804534912109375 -0.198272705078125 10.62921142578125 -0.08099365234375 10.62921142578125 -0.08099365234375 L 256.3795776367188 -0.08099365234375 C 256.3795776367188 -0.08099365234375 259.8290100097656 -0.050201416015625 261.5437316894531 1.623077392578125 C 263.2584838867188 3.296295166015625 263.2385864257813 6.611968994140625 263.2385864257813 6.611968994140625 L 259.3146362304688 357.5469665527344 C 259.3146362304688 357.5469665527344 259.0672607421875 360.5628051757813 257.4794311523438 362.1565551757813 C 255.8915863037109 363.7502136230469 252.96337890625 363.9217529296875 252.96337890625 363.9217529296875 L 7.989105224609375 363.9217529296875 C 7.989105224609375 363.9217529296875 5.45794677734375 363.6540832519531 4.00164794921875 362.2129211425781 C 2.545318603515625 360.7718200683594 2.163848876953125 358.1571655273438 2.163848876953125 358.1571655273438 L 0.087738037109375 8.6580810546875 C 0.087738037109375 8.6580810546875 0.22137451171875 3.558135986328125 2.856781005859375 1.373321533203125 C 4.43603515625 0.06414794921875 6.9139404296875 -0.198272705078125 8.646102905273438 -0.198272705078125 Z"/>
    </g>
    <rect id="Rectangle_2" data-name="Rectangle 2" class="cls-3" width="218" height="236" transform="translate(865 152)"/>
    <path id="Tracé_7" data-name="Tracé 7" class="cls-4" d="M243,1.961H2.865" transform="translate(848.289 112.692)"/>
    <line id="Ligne_6" data-name="Ligne 6" class="cls-5" x1="3" y1="343" transform="translate(850.5 113.5)"/>
    <g id="Tracé_5" data-name="Tracé 5" class="cls-6" transform="translate(855.654 370.564)">
      <path class="cls-11" d="M 226.7957153320313 76.01194763183594 L 7.22120189666748 76.01194763183594 C 6.726384162902832 75.99736022949219 6.011538505554199 75.95360565185547 5.388603210449219 75.88592529296875 L 3.63530969619751 8.855016708374023 C 4.554475784301758 8.720117568969727 6.022459506988525 8.644184112548828 7.761353969573975 8.644184112548828 C 8.718720436096191 8.644184112548828 9.4119873046875 8.667551040649414 9.418887138366699 8.667783737182617 L 9.521020889282227 8.671283721923828 L 9.624053955078125 8.668817520141602 L 229.91943359375 3.345315456390381 C 230.5957489013672 3.348587036132813 231.5909118652344 3.384408950805664 232.4324645996094 3.45427680015564 L 229.1152801513672 75.87034606933594 C 228.3503265380859 75.95378112792969 227.4060821533203 76.0023193359375 226.7957153320313 76.01194763183594 Z"/>
      <path class="cls-12" d="M 228.7735900878906 6.873947143554688 L 9.299850463867188 12.16572570800781 L 7.761489868164063 12.14415740966797 C 7.712646484375 12.14415740966797 7.662994384765625 12.14414978027344 7.612396240234375 12.14414978027344 C 7.487091064453125 12.14414978027344 7.356689453125 12.14420318603516 7.222549438476563 12.14458465576172 L 8.80157470703125 72.51194763183594 L 225.7655181884766 72.51276397705078 L 228.7735900878906 6.873947143554688 M 229.8844604492188 -0.154876708984375 C 229.8844604492188 -0.154876708984375 232.9772338867188 -0.1481246948242188 234.5147094726563 0.2180862426757813 C 236.0521697998047 0.5842971801757813 236.0343475341797 1.309982299804688 236.0343475341797 1.309982299804688 L 232.5160675048828 78.11676788330078 C 232.5160675048828 78.11676788330078 232.2942047119141 78.77684020996094 230.8705596923828 79.12562561035156 C 229.4468841552734 79.47444152832031 226.8213500976563 79.51194000244141 226.8213500976563 79.51194000244141 L 7.172271728515625 79.51194000244141 C 7.172271728515625 79.51194000244141 4.90277099609375 79.453369140625 3.597030639648438 79.13794708251953 C 2.291275024414063 78.82254791259766 1.94927978515625 78.25029754638672 1.94927978515625 78.25029754638672 L 0.087738037109375 7.082511901855469 C 0.087738037109375 7.082511901855469 0.2075958251953125 5.966300964355469 2.570526123046875 5.4881591796875 C 3.986495971679688 5.201614379882813 6.208389282226563 5.144172668457031 7.761489868164063 5.144172668457031 C 8.800155639648438 5.144172668457031 9.539459228515625 5.169837951660156 9.539459228515625 5.169837951660156 L 229.8844604492188 -0.154876708984375 Z"/>
    </g>
    <path id="Tracé_6" data-name="Tracé 6" class="cls-7" d="M206.456-3.188H-.48" transform="translate(870 441.232)"/>
    <g id="Grille_de_répétition_1" data-name="Grille de répétition 1" class="cls-8" transform="translate(919.062 123.229)">
      <g id="Groupe_3" data-name="Groupe 3" transform="translate(-175.061 -90.229)">
        <path id="Icon_awesome-star" data-name="Icon awesome-star" d="M11.375.74,8.659,6.248l-6.078.886a1.332,1.332,0,0,0-.736,2.271l4.4,4.285L5.2,19.743a1.33,1.33,0,0,0,1.93,1.4l5.437-2.858,5.437,2.858a1.331,1.331,0,0,0,1.93-1.4L18.9,13.69l4.4-4.285a1.332,1.332,0,0,0-.736-2.271L16.48,6.248,13.763.74a1.332,1.332,0,0,0-2.388,0Z" transform="translate(174.62 91.229)"/>
        <path id="Icon_awesome-star-2" data-name="Icon awesome-star" class="cls-9" d="M11.375.74,8.659,6.248l-6.078.886a1.332,1.332,0,0,0-.736,2.271l4.4,4.285L5.2,19.743a1.33,1.33,0,0,0,1.93,1.4l5.437-2.858,5.437,2.858a1.331,1.331,0,0,0,1.93-1.4L18.9,13.69l4.4-4.285a1.332,1.332,0,0,0-.736-2.271L16.48,6.248,13.763.74a1.332,1.332,0,0,0-2.388,0Z" transform="translate(173.62 90.229)"/>
        <path id="Icon_awesome-star-3" data-name="Icon awesome-star" class="cls-10" d="M11.375.74,8.659,6.248l-6.078.886a1.332,1.332,0,0,0-.736,2.271l4.4,4.285L16.48,6.248,13.763.74a1.332,1.332,0,0,0-2.388,0Z" transform="translate(173.62 90.229)"/>
      </g>
      <g id="Groupe_3-2" data-name="Groupe 3" transform="translate(-145.061 -90.229)">
        <path id="Icon_awesome-star-4" data-name="Icon awesome-star" d="M11.375.74,8.659,6.248l-6.078.886a1.332,1.332,0,0,0-.736,2.271l4.4,4.285L5.2,19.743a1.33,1.33,0,0,0,1.93,1.4l5.437-2.858,5.437,2.858a1.331,1.331,0,0,0,1.93-1.4L18.9,13.69l4.4-4.285a1.332,1.332,0,0,0-.736-2.271L16.48,6.248,13.763.74a1.332,1.332,0,0,0-2.388,0Z" transform="translate(174.62 91.229)"/>
        <path id="Icon_awesome-star-5" data-name="Icon awesome-star" class="cls-9" d="M11.375.74,8.659,6.248l-6.078.886a1.332,1.332,0,0,0-.736,2.271l4.4,4.285L5.2,19.743a1.33,1.33,0,0,0,1.93,1.4l5.437-2.858,5.437,2.858a1.331,1.331,0,0,0,1.93-1.4L18.9,13.69l4.4-4.285a1.332,1.332,0,0,0-.736-2.271L16.48,6.248,13.763.74a1.332,1.332,0,0,0-2.388,0Z" transform="translate(173.62 90.229)"/>
        <path id="Icon_awesome-star-6" data-name="Icon awesome-star" class="cls-10" d="M11.375.74,8.659,6.248l-6.078.886a1.332,1.332,0,0,0-.736,2.271l4.4,4.285L16.48,6.248,13.763.74a1.332,1.332,0,0,0-2.388,0Z" transform="translate(173.62 90.229)"/>
      </g>
      <g id="Groupe_3-3" data-name="Groupe 3" transform="translate(-115.061 -90.229)">
        <path id="Icon_awesome-star-7" data-name="Icon awesome-star" d="M11.375.74,8.659,6.248l-6.078.886a1.332,1.332,0,0,0-.736,2.271l4.4,4.285L5.2,19.743a1.33,1.33,0,0,0,1.93,1.4l5.437-2.858,5.437,2.858a1.331,1.331,0,0,0,1.93-1.4L18.9,13.69l4.4-4.285a1.332,1.332,0,0,0-.736-2.271L16.48,6.248,13.763.74a1.332,1.332,0,0,0-2.388,0Z" transform="translate(174.62 91.229)"/>
        <path id="Icon_awesome-star-8" data-name="Icon awesome-star" class="cls-9" d="M11.375.74,8.659,6.248l-6.078.886a1.332,1.332,0,0,0-.736,2.271l4.4,4.285L5.2,19.743a1.33,1.33,0,0,0,1.93,1.4l5.437-2.858,5.437,2.858a1.331,1.331,0,0,0,1.93-1.4L18.9,13.69l4.4-4.285a1.332,1.332,0,0,0-.736-2.271L16.48,6.248,13.763.74a1.332,1.332,0,0,0-2.388,0Z" transform="translate(173.62 90.229)"/>
        <path id="Icon_awesome-star-9" data-name="Icon awesome-star" class="cls-10" d="M11.375.74,8.659,6.248l-6.078.886a1.332,1.332,0,0,0-.736,2.271l4.4,4.285L16.48,6.248,13.763.74a1.332,1.332,0,0,0-2.388,0Z" transform="translate(173.62 90.229)"/>
      </g>
      <g id="Groupe_3-4" data-name="Groupe 3" transform="translate(-85.061 -90.229)">
        <path id="Icon_awesome-star-10" data-name="Icon awesome-star" d="M11.375.74,8.659,6.248l-6.078.886a1.332,1.332,0,0,0-.736,2.271l4.4,4.285L5.2,19.743a1.33,1.33,0,0,0,1.93,1.4l5.437-2.858,5.437,2.858a1.331,1.331,0,0,0,1.93-1.4L18.9,13.69l4.4-4.285a1.332,1.332,0,0,0-.736-2.271L16.48,6.248,13.763.74a1.332,1.332,0,0,0-2.388,0Z" transform="translate(174.62 91.229)"/>
        <path id="Icon_awesome-star-11" data-name="Icon awesome-star" class="cls-9" d="M11.375.74,8.659,6.248l-6.078.886a1.332,1.332,0,0,0-.736,2.271l4.4,4.285L5.2,19.743a1.33,1.33,0,0,0,1.93,1.4l5.437-2.858,5.437,2.858a1.331,1.331,0,0,0,1.93-1.4L18.9,13.69l4.4-4.285a1.332,1.332,0,0,0-.736-2.271L16.48,6.248,13.763.74a1.332,1.332,0,0,0-2.388,0Z" transform="translate(173.62 90.229)"/>
        <path id="Icon_awesome-star-12" data-name="Icon awesome-star" class="cls-10" d="M11.375.74,8.659,6.248l-6.078.886a1.332,1.332,0,0,0-.736,2.271l4.4,4.285L16.48,6.248,13.763.74a1.332,1.332,0,0,0-2.388,0Z" transform="translate(173.62 90.229)"/>
      </g>
    </g>
    <path id="Tracé_9" data-name="Tracé 9" class="cls-4" d="M243,1.961H2.865" transform="translate(848.289 112.692)"/>
    <line id="Ligne_7" data-name="Ligne 7" class="cls-5" x1="3" y1="343" transform="translate(850.5 113.5)"/>
  </g>
</svg>
