<svg xmlns="http://www.w3.org/2000/svg" xmlns:xlink="http://www.w3.org/1999/xlink" width="473" height="558.664" viewBox="0 0 473 558.664"><defs><style>.cls-1{fill:#fcfbdd}.cls-2{fill:#52a566;stroke:#7ac57c;stroke-width:8px}.cls-15,.cls-3,.cls-4,.cls-5{fill:none}.cls-3{stroke:#707070}.cls-3,.cls-4,.cls-5{stroke-linecap:round;stroke-width:10px}.cls-4{stroke:#c4e795}.cls-5{stroke:#86c47b}.cls-6{fill:#b34c30}.cls-7{fill:#fd8b54}.cls-8{fill:#f37f4b}.cls-9{fill:#f7a561}.cls-10{fill:#a73f28}.cls-11{fill:#fcc37b}.cls-12{fill:#eb7e4b}.cls-13,.cls-14{stroke:none}.cls-14{fill:#7ac57c}.cls-16{filter:url(#Ellipse_3)}</style><filter id="Ellipse_3" width="78" height="78" x="395" y="22.088" filterUnits="userSpaceOnUse"><feOffset dy="3" input="SourceAlpha"/><feGaussianBlur result="blur" stdDeviation="3"/><feFlood flood-opacity=".161"/><feComposite in2="blur" operator="in"/><feComposite in="SourceGraphic"/></filter></defs><g id="Groupe37" transform="translate(-985 -278.912)"><g id="Tracé_45" class="cls-1" data-name="Tracé 45"><path d="M 216.1513824462891 513.5765380859375 C 197.9541778564453 513.5765380859375 178.2835998535156 513.17919921875 157.68603515625 512.3955688476563 C 141.2014617919922 511.7684631347656 124.0908203125 510.8939514160156 106.8295288085938 509.7963256835938 C 79.03971099853516 508.0292663574219 59.76250839233398 506.2422180175781 57.58551788330078 506.0375671386719 C 50.19180679321289 504.5382385253906 43.466796875 502.2247009277344 37.5946044921875 499.1600341796875 C 31.86267471313477 496.1686096191406 26.73660469055176 492.351806640625 22.35881805419922 487.8157348632813 C 18.08410453796387 483.3865356445313 14.35888957977295 478.1021118164063 11.28653240203857 472.1092529296875 C 8.309305191040039 466.3019714355469 5.836276531219482 459.6182556152344 3.934440612792969 452.2393493652344 C 3.575955629348755 449.5007934570313 0.1668157875537872 423.1437072753906 -3.20011043548584 386.1925964355469 C -5.279253482818604 363.3753051757813 -6.935681819915771 341.0428161621094 -8.123467445373535 319.8153076171875 C -9.607110023498535 293.3001098632813 -10.35939598083496 268.4474487304688 -10.35939598083496 245.9476623535156 C -10.35939598083496 223.4588775634766 -9.607824325561523 199.5688781738281 -8.125467300415039 174.9413909912109 C -6.938967704772949 155.2281646728516 -5.284324645996094 135.0017395019531 -3.207467555999756 114.8240280151367 C 0.2389175593852997 81.34026336669922 3.729631662368774 59.02684020996094 3.940256357192993 57.69227600097656 C 5.271584510803223 50.80049896240234 7.424527168273926 44.33738708496094 10.339674949646 38.48123931884766 C 13.28860378265381 32.5573844909668 17.03167533874512 27.22881317138672 21.46488952636719 22.64366912841797 C 26.0068187713623 17.94609832763672 31.31153297424316 13.99138355255127 37.23160552978516 10.88924121856689 C 43.34950256347656 7.683543682098389 50.1939811706543 5.353029727935791 57.57691955566406 3.961564779281616 C 59.57612228393555 3.754162311553955 80.16468811035156 1.64255154132843 109.3889617919922 -0.4427590072154999 C 127.3660354614258 -1.725544691085815 145.0452423095703 -2.747616052627563 161.9353942871094 -3.480473279953003 C 183.0342407226563 -4.395901679992676 202.9521026611328 -4.860116004943848 221.1357421875 -4.860116004943848 C 239.3146057128906 -4.860116004943848 258.79296875 -4.396187782287598 279.0296020507813 -3.481116056442261 C 295.2282409667969 -2.748687505722046 311.9454650878906 -1.727259039878845 328.7168884277344 -0.4451875984668732 C 356.0368041992188 1.643160820007324 374.6648254394531 3.757892608642578 376.4041748046875 3.957796812057495 C 390.90625 6.668468475341797 402.8558654785156 12.66565322875977 411.9225463867188 21.78388404846191 C 420.9351806640625 30.84780693054199 427.0349426269531 42.92029571533203 430.0540466308594 57.66886138916016 C 430.3375244140625 59.77103805541992 433.9911193847656 87.10910034179688 437.598876953125 125.3582382202148 C 439.7930908203125 148.6211700439453 441.541259765625 171.30859375 442.7947387695313 192.7902374267578 C 444.3604736328125 219.6215209960938 445.1543273925781 244.6328887939453 445.1543273925781 267.1297302246094 C 445.1543273925781 289.6109619140625 444.3614501953125 313.3314514160156 442.7978210449219 337.6323852539063 C 441.5461730957031 357.0841674804688 439.8007507324219 376.9485168457031 437.6098937988281 396.6736755371094 C 433.8782348632813 430.2722473144531 430.0972595214844 452.0962524414063 430.0595397949219 452.312744140625 L 430.0496826171875 452.3691101074219 L 430.0414733886719 452.4258728027344 C 428.9790954589844 459.7503967285156 426.9615173339844 466.5354614257813 424.0449523925781 472.5925903320313 C 421.1875915527344 478.5267333984375 417.4352416992188 483.8278198242188 412.8921813964844 488.3485412597656 C 408.356689453125 492.8616638183594 402.9827575683594 496.6478881835938 396.9196166992188 499.6020202636719 C 390.8031616210938 502.58203125 383.9255065917969 504.744873046875 376.4765625 506.0314025878906 C 374.5650329589844 506.2078247070313 354.7543334960938 508.0142211914063 326.291259765625 509.7982482910156 C 308.7869567871094 510.8953857421875 291.4836730957031 511.76953125 274.8618774414063 512.3963012695313 C 254.0958251953125 513.179443359375 234.3427429199219 513.5765380859375 216.1513824462891 513.5765380859375 Z" class="cls-13" transform="translate(999.359 320)"/><path d="M 221.1357727050781 -0.860076904296875 C 142.5110168457031 -0.860076904296875 58.70587158203125 7.864471435546875 58.4666748046875 7.864471435546875 C 58.46661376953125 7.864471435546875 58.46658325195313 7.864471435546875 58.466552734375 7.864471435546875 C 31.13238525390625 12.96170043945313 13.15853881835938 30.94839477539063 7.899993896484375 58.26077270507813 C 7.7574462890625 59.154541015625 -6.359375 148.7682189941406 -6.359375 245.9476928710938 C -6.359375 343.2567138671875 7.787384033203125 450.8706970214844 7.750762939453125 451.0186157226563 C 15.27838134765625 480.4651489257813 31.42739868164063 496.7144470214844 57.76214599609375 502.036376953125 C 58.55014038085938 502.1117553710938 137.4755249023438 509.5764465332031 216.1513824462891 509.5764465332031 C 294.81787109375 509.5764465332031 375.4092407226563 502.1143798828125 375.6518859863281 502.1143798828125 C 375.6519470214844 502.1143798828125 375.6520385742188 502.1143798828125 375.6520690917969 502.1143798828125 C 404.1789245605469 497.2382202148438 422.0888366699219 479.3879089355469 426.1189880371094 451.6251525878906 C 426.2693786621094 450.7633056640625 441.154296875 364.31298828125 441.154296875 267.1297607421875 C 441.154296875 169.8332214355469 426.2241516113281 59.18701171875 426.1603698730469 58.59368896484375 C 420.4462280273438 30.48553466796875 402.9427795410156 12.94415283203125 376.0719909667969 7.946014404296875 C 375.3179931640625 7.85791015625 299.7606811523438 -0.860076904296875 221.1357727050781 -0.860076904296875 M 221.1357727050781 -8.860076904296875 C 301.1357727050781 -8.860076904296875 377 0 377 0 C 408.029296875 5.7506103515625 427.6611633300781 25.818603515625 434 57 C 434 57 449.154296875 168.1297607421875 449.154296875 267.1297607421875 C 449.154296875 366.1297607421875 434 453 434 453 C 429.4667663574219 484.254150390625 408.76953125 504.5695495605469 377 510 C 377 510 296.1513671875 517.5764770507813 216.1513824462891 517.5764770507813 C 136.1513977050781 517.5764770507813 57 510 57 510 C 25.115234375 503.6082153320313 7.8330078125 483.6409301757813 0 453 C 0 453 -14.359375 344.9476928710938 -14.359375 245.9476928710938 C -14.359375 146.9476928710938 0 57 0 57 C 5.579071044921875 27.99990844726563 24.99215698242188 5.968780517578125 57 0 C 57 0 141.1357727050781 -8.860076904296875 221.1357727050781 -8.860076904296875 Z" class="cls-14" transform="translate(999.359 320)"/></g><g id="Groupe_32" data-name="Groupe 32" transform="translate(481 -40)"><g class="cls-16" transform="matrix(1, 0, 0, 1, 504, 318.91)"><g id="Ellipse_3-2" class="cls-2" data-name="Ellipse 3" transform="translate(404 28.09)"><circle cx="30" cy="30" r="30" class="cls-13"/><circle cx="30" cy="30" r="26" class="cls-15"/></g></g><line id="Ligne_8" x2="18" y2="20" class="cls-3" data-name="Ligne 8" transform="translate(927.5 368)"/><line id="Ligne_9" x1="19" y2="19" class="cls-3" data-name="Ligne 9" transform="translate(927.5 369)"/><line id="Ligne_10" x2="18" y2="20" class="cls-4" data-name="Ligne 10" transform="translate(928.5 367)"/><line id="Ligne_11" x1="19" y2="19" class="cls-4" data-name="Ligne 11" transform="translate(928.5 368)"/><line id="Ligne_12" x2="18" y2="20" class="cls-5" data-name="Ligne 12" transform="translate(928.5 367)"/><line id="Ligne_13" x1="19" y2="19" class="cls-5" data-name="Ligne 13" transform="translate(928.5 368)"/><line id="Ligne_14" x2="18" y2="20" class="cls-4" data-name="Ligne 14" transform="translate(929.5 366)"/><line id="Ligne_15" x1="19" y2="19" class="cls-4" data-name="Ligne 15" transform="translate(929.5 367)"/></g><g id="Groupe_35" data-name="Groupe 35" transform="translate(505.243 -76.632)"><path id="Tracé_46" d="M25,0S82.7-4.455,140.7-4.455,257,0,257,0a25,25,0,0,1,25,25v6a25,25,0,0,1-25,25s-56.093-3.685-114.093-3.685S25,56,25,56A25,25,0,0,1,0,31V25A25,25,0,0,1,25,0Z" class="cls-6" data-name="Tracé 46" transform="translate(574.757 364)"/><path id="Tracé_47" d="M25,0S82.7-4.455,140.7-4.455,257,0,257,0a25,25,0,0,1,25,25v6a25,25,0,0,1-25,25s-56.093-3.685-114.093-3.685S25,56,25,56A25,25,0,0,1,0,31V25A25,25,0,0,1,25,0Z" class="cls-7" data-name="Tracé 47" transform="translate(574.757 360)"/><path id="Tracé_48" d="M11599.291,376.693a580.472,580.472,0,0,0-62.651-3.259l64.03,10.006a23.419,23.419,0,0,0-.392-3.538A19.3,19.3,0,0,0,11599.291,376.693Z" class="cls-8" data-name="Tracé 48" transform="translate(-10744)"/><path id="Tracé_49" d="M11704.357,376.271c-92.295-3.686-167.717-2.837-167.717-2.837l166.1,10.159a16.353,16.353,0,0,0,1.221-3.435A20.508,20.508,0,0,0,11704.357,376.271Z" class="cls-8" data-name="Tracé 49" transform="translate(-10847.72 16.354)"/><path id="Tracé_50" d="M11536.728,387.856c18.227-9.916,22.634-11.325,51.187-14.5s63.038-5.423,63.038-5.423-34.925-1.356-63.038,0a393.553,393.553,0,0,0-49.415,5.423,19.739,19.739,0,0,0-1.14,3.449c-.144.65-.632,4.291-.632,4.291Z" class="cls-8" data-name="Tracé 50" transform="translate(-10961.884 2.18)"/><g id="Groupe_33" data-name="Groupe 33"><circle id="Ellipse_4" cx="9" cy="9" r="9" class="cls-9" data-name="Ellipse 4" transform="translate(597 378)"/><path id="Tracé_51" d="M9,0a9.728,9.728,0,0,1,4.641,1.305A11.927,11.927,0,0,1,16.734,4.4a18.927,18.927,0,0,0-6.107-2.227,9.524,9.524,0,0,0-3.851.107A11.312,11.312,0,0,0,2.658,4.631C.543,6.82,0,10.254,0,9A9,9,0,0,1,9,0Z" class="cls-10" data-name="Tracé 51" transform="translate(597 378)"/><path id="Tracé_52" d="M7.734,9.268A9.728,9.728,0,0,1,3.094,7.963,11.927,11.927,0,0,1,0,4.87,18.927,18.927,0,0,0,6.107,7.1,9.524,9.524,0,0,0,9.958,6.99a11.312,11.312,0,0,0,4.118-2.353C16.192,2.448,16.734-.986,16.734.268A9,9,0,0,1,7.734,9.268Z" class="cls-11" data-name="Tracé 52" transform="translate(598.266 386.732)"/><path id="Tracé_53" d="M1.86,0c1.027,0-.6,2.789-.6,6.1s1.625,5.9.6,5.9S0,9.314,0,6,.833,0,1.86,0Z" class="cls-12" data-name="Tracé 53" transform="matrix(0.951, 0.309, -0.309, 0.951, 606.175, 380.954)"/></g><g id="Groupe_34" data-name="Groupe 34" transform="translate(224 2)"><circle id="Ellipse_4-2" cx="9" cy="9" r="9" class="cls-9" data-name="Ellipse 4" transform="translate(597 378)"/><path id="Tracé_51-2" d="M9,0a9.728,9.728,0,0,1,4.641,1.305A11.927,11.927,0,0,1,16.734,4.4a18.927,18.927,0,0,0-6.107-2.227,9.524,9.524,0,0,0-3.851.107A11.312,11.312,0,0,0,2.658,4.631C.543,6.82,0,10.254,0,9A9,9,0,0,1,9,0Z" class="cls-10" data-name="Tracé 51" transform="translate(597 378)"/><path id="Tracé_52-2" d="M7.734,9.268A9.728,9.728,0,0,1,3.094,7.963,11.927,11.927,0,0,1,0,4.87,18.927,18.927,0,0,0,6.107,7.1,9.524,9.524,0,0,0,9.958,6.99a11.312,11.312,0,0,0,4.118-2.353C16.192,2.448,16.734-.986,16.734.268A9,9,0,0,1,7.734,9.268Z" class="cls-11" data-name="Tracé 52" transform="translate(598.266 386.732)"/><path id="Tracé_53-2" d="M1.86,0c1.027,0-.6,2.789-.6,6.1s1.625,5.9.6,5.9S0,9.314,0,6,.833,0,1.86,0Z" class="cls-12" data-name="Tracé 53" transform="matrix(0.951, 0.309, -0.309, 0.951, 606.175, 380.954)"/></g><path id="Tracé_54" d="M17.194-6.561,18.042,13.5l-19.613.678S6.9,10.324,11.964,3.1,17.194-6.561,17.194-6.561Z" class="cls-8" data-name="Tracé 54" transform="translate(638 400)"/></g></g></svg>